# xmcd CD database file
#
# Track frame offsets:
#	150
#	3842
#	17717
#	36485
#	52527
#	71222
#	81075
#	115107
#	132262
#	157135
#	174892
#	194457
#	211415
#	221987
#
# Disc length: 3384 seconds
#
# Revision: 3
# Processed by: cddbd v1.5PL3 Copyright (c) Steve Scherf et al.
# Submitted via: CDex 1.40Release
#
DISCID=c10d360e
DTITLE=クレイジーケン - クレイジーケンズ・ワールド
DYEAR=1995
DGENRE=Unknown
TTITLE0=ワイキキ大作戦
TTITLE1=BELLETTE 1600GT
TTITLE2=サマー・ピープル
TTITLE3=黒猫のファンク
TTITLE4=本牧ビーチ・フィールド
TTITLE5=中華街大作戦
TTITLE6=スージー・ウォンの世界
TTITLE7=涙のデイライト
TTITLE8=愛の世界
TTITLE9=ブライト・スパークス
TTITLE10=渦
TTITLE11=BELLETTE 1600GT ラッキー仕様
TTITLE12=中華街カ拉OK大作戦
TTITLE13=スージー・ウォンの世界 (Coaster's Dub)
EXTD=YEAR: 1995
EXTT0=
EXTT1=
EXTT2=
EXTT3=
EXTT4=
EXTT5=
EXTT6=
EXTT7=
EXTT8=
EXTT9=
EXTT10=
EXTT11=
EXTT12=
EXTT13=
PLAYORDER=
